/* XPM */
static char * bottom_left_active_xpm[] = {
"24 24 2 1",
" 	c None",
".	c #ea4335",
".....                   ",
".....                   ",
".....                   ",
".....                   ",
".....                   ",
".....                   ",
".....                   ",
".....                   ",
".....                   ",
".....                   ",
".....                   ",
".....                   ",
".....                   ",
".....                   ",
".....                   ",
".....                   ",
".....                   ",
".....                   ",
".....                   ",
"........................",
"........................",
"........................",
"........................",
"........................"};
