/* XPM */
static char * maximize_inactive_xpm[] = {
"34 28 3 1",
" 	c None",
".	c #EDECEB s active_color_2",
"+	c #ea4335",
"                                  ",
"                                  ",
"                                  ",
"..................................",
"..................................",
"..................................",
"..................................",
"..................................",
"..................................",
"..................................",
"............++++++++++............",
"............++++++++++............",
"............++......++............",
"............++......++............",
"............++......++............",
"............++......++............",
"............++......++............",
"............++......++............",
"............++++++++++............",
"............++++++++++............",
"..................................",
"..................................",
"..................................",
"..................................",
"..................................",
"..................................",
"..................................",
".................................."};
