/* XPM */
static char * maximize_active_xpm[] = {
"34 28 3 1",
" 	c None",
".	c #ea4335",
"+	c #FFFFFF",
"                                  ",
"                                  ",
"                                  ",
"..................................",
"..................................",
"..................................",
"..................................",
"..................................",
"..................................",
"..................................",
"............++++++++++............",
"............++++++++++............",
"............++......++............",
"............++......++............",
"............++......++............",
"............++......++............",
"............++......++............",
"............++......++............",
"............++++++++++............",
"............++++++++++............",
"..................................",
"..................................",
"..................................",
"..................................",
"..................................",
"..................................",
"..................................",
".................................."};
