/* XPM */
static char * right_inactive_xpm[] = {
"5 24 3 1",
" 	c None",
".	c #EDECEB s active_color_2",
"+	c #4285F4",
"..+++",
"..+++",
"..+++",
"..+++",
"..+++",
"..+++",
"..+++",
"..+++",
"..+++",
"..+++",
"..+++",
"..+++",
"..+++",
"..+++",
"..+++",
"..+++",
"..+++",
"..+++",
"..+++",
"..+++",
"..+++",
"..+++",
"..+++",
"..+++"};
