/* XPM */
static char * title_3_inactive_xpm[] = {
"8 28 3 1",
" 	c None",
".	c #4285F4",
"+	c #EDECEB s active_color_2",
"........",
"........",
"........",
"++++++++",
"++++++++",
"++++++++",
"++++++++",
"++++++++",
"++++++++",
"++++++++",
"++++++++",
"++++++++",
"++++++++",
"++++++++",
"++++++++",
"++++++++",
"++++++++",
"++++++++",
"++++++++",
"++++++++",
"++++++++",
"++++++++",
"++++++++",
"++++++++",
"........",
"++++++++",
"++++++++",
"++++++++"};
