/* XPM */
static char * left_inactive_xpm[] = {
"5 24 3 1",
" 	c None",
".	c #34a853",
"+	c #EDECEB s active_color_2",
"...++",
"...++",
"...++",
"...++",
"...++",
"...++",
"...++",
"...++",
"...++",
"...++",
"...++",
"...++",
"...++",
"...++",
"...++",
"...++",
"...++",
"...++",
"...++",
"...++",
"...++",
"...++",
"...++",
"...++"};
