/* XPM */
static char * bottom_right_inactive_xpm[] = {
"24 24 3 1",
" 	c None",
".	c #EDECEB s active_color_2",
"+	c #4285F4 s active_color_1",
"                   ..+++",
"                   ..+++",
"                   ..+++",
"                   ..+++",
"                   ..+++",
"                   ..+++",
"                   ..+++",
"                   ..+++",
"                   ..+++",
"                   ..+++",
"                   ..+++",
"                   ..+++",
"                   ..+++",
"                   ..+++",
"                   ..+++",
"                   ..+++",
"                   ..+++",
"                   ..+++",
"                   ..+++",
".....................+++",
".....................+++",
"++++++++++++++++++++++++",
"++++++++++++++++++++++++",
"++++++++++++++++++++++++"};
