/* XPM */
static char * left_inactive_xpm[] = {
"5 24 3 1",
" 	c None",
".	c #4285F4 s active_color_1",
"+	c #EDECEB s active_color_2",
"...++",
"...++",
"...++",
"...++",
"...++",
"...++",
"...++",
"...++",
"...++",
"...++",
"...++",
"...++",
"...++",
"...++",
"...++",
"...++",
"...++",
"...++",
"...++",
"...++",
"...++",
"...++",
"...++",
"...++"};
