/* XPM */
static char * left_inactive_xpm[] = {
"5 24 3 1",
" 	c None",
".	c #df5e0b",
"+	c #EDECEB s active_color_2",
"...++",
"...++",
"...++",
"...++",
"...++",
"...++",
"...++",
"...++",
"...++",
"...++",
"...++",
"...++",
"...++",
"...++",
"...++",
"...++",
"...++",
"...++",
"...++",
"...++",
"...++",
"...++",
"...++",
"...++"};
