/* XPM */
static char * title_5_inactive_xpm[] = {
"8 28 3 1",
" 	c None",
".	c #df5e0b",
"+	c #EDECEB s active_color_2",
"........",
"........",
"........",
"++++++++",
"++++++++",
"++++++++",
"++++++++",
"++++++++",
"++++++++",
"++++++++",
"++++++++",
"++++++++",
"++++++++",
"++++++++",
"++++++++",
"++++++++",
"++++++++",
"++++++++",
"++++++++",
"++++++++",
"++++++++",
"++++++++",
"++++++++",
"++++++++",
"++++++++",
"++++++++",
"++++++++",
"++++++++"};
