/* XPM */
static char * bottom_inactive_xpm[] = {
"24 5 3 1",
" 	c None",
".	c #EDECEB s active_color_2",
"+	c #fbbc05",
"........................",
"........................",
"++++++++++++++++++++++++",
"++++++++++++++++++++++++",
"++++++++++++++++++++++++"};
