/* XPM */
static char * menu_active_xpm[] = {
"34 28 3 1",
" 	c None",
".	c #fbbc05",
"+	c #FFFFFF",
"                                  ",
"                                  ",
"                                  ",
"..................................",
"..................................",
"..................................",
"..................................",
"..................................",
"..................................",
"..................................",
"............++++++++++............",
"............++++++++++............",
"..................................",
"..................................",
"............++++++++++............",
"............++++++++++............",
"..................................",
"..................................",
"............++++++++++............",
"............++++++++++............",
"..................................",
"..................................",
"..................................",
"..................................",
"..................................",
"..................................",
"..................................",
".................................."};
