/* XPM */
static char * top_left_inactive_xpm[] = {
"8 28 3 1",
" 	c None",
".	c #fbbc05",
"+	c #EDECEB s active_color_2",
"........",
"........",
"........",
"...+++++",
"...+++++",
"...+++++",
"...+++++",
"...+++++",
"...+++++",
"...+++++",
"...+++++",
"...+++++",
"...+++++",
"...+++++",
"...+++++",
"...+++++",
"...+++++",
"...+++++",
"...+++++",
"...+++++",
"...+++++",
"...+++++",
"...+++++",
"...+++++",
"...+++++",
"...+++++",
"...+++++",
"...+++++"};
